<svg xmlns="http://www.w3.org/2000/svg" viewBox="0 0 240 240" width="240" height="240">
  <defs>
    <symbol id="moidaPerson" viewBox="0 0 40 56">
      <circle cx="20" cy="11" r="11"/>
      <path d="M4 56 V42 C4 30 12 26 20 26 C28 26 36 30 36 42 V56 Z"/>
    </symbol>
  </defs>

  <!-- center figure -->
  <use href="#moidaPerson" x="85" y="71" width="70" height="98" fill="#1a1a1a"/>

  <!-- surrounding ring -->
  <use href="#moidaPerson" x="105"   y="7"     width="30" height="42" fill="#2e9bd6"/>
  <use href="#moidaPerson" x="144.9" y="16.1"  width="30" height="42" fill="#e8442f"/>
  <use href="#moidaPerson" x="176.9" y="41.6"  width="30" height="42" fill="#f5a623"/>
  <use href="#moidaPerson" x="194.7" y="78.5"  width="30" height="42" fill="#f4d03f"/>
  <use href="#moidaPerson" x="194.7" y="119.5" width="30" height="42" fill="#8bc34a"/>
  <use href="#moidaPerson" x="176.9" y="156.4" width="30" height="42" fill="#26a69a"/>
  <use href="#moidaPerson" x="144.9" y="181.9" width="30" height="42" fill="#2e9bd6"/>
  <use href="#moidaPerson" x="105"   y="191"   width="30" height="42" fill="#3f51b5"/>
  <use href="#moidaPerson" x="65.1"  y="181.9" width="30" height="42" fill="#5e35b1"/>
  <use href="#moidaPerson" x="33.1"  y="156.4" width="30" height="42" fill="#8e24aa"/>
  <use href="#moidaPerson" x="15.3"  y="119.5" width="30" height="42" fill="#d81b8c"/>
  <use href="#moidaPerson" x="15.3"  y="78.5"  width="30" height="42" fill="#e8442f"/>
  <use href="#moidaPerson" x="33.1"  y="41.6"  width="30" height="42" fill="#f5a623"/>
  <use href="#moidaPerson" x="65.1"  y="16.1"  width="30" height="42" fill="#8bc34a"/>
</svg>
